<?xml version="1.0" standalone="no"?>
<!DOCTYPE svg PUBLIC "-//W3C//DTD SVG 20010904//EN"
 "http://www.w3.org/TR/2001/REC-SVG-20010904/DTD/svg10.dtd">
<svg version="1.0" xmlns="http://www.w3.org/2000/svg"
 width="512.000000pt" height="512.000000pt" viewBox="0 0 512.000000 512.000000"
 preserveAspectRatio="xMidYMid meet">
<metadata>
Created by potrace 1.11, written by Peter Selinger 2001-2013
</metadata>
<g transform="translate(0.000000,512.000000) scale(0.100000,-0.100000)"
fill="#000000" stroke="none">
<path d="M1128 4285 c-1 -2 -31 -6 -65 -9 -73 -7 -208 -45 -289 -81 -61 -27
-191 -105 -234 -140 -50 -41 -158 -151 -190 -195 -19 -25 -37 -47 -40 -50 -7
-6 -58 -89 -94 -152 -61 -109 -152 -375 -170 -498 -17 -114 -26 -195 -29 -267
l-4 -83 46 -1 c25 -1 57 -2 71 -4 14 -1 52 -5 85 -9 157 -17 373 -99 487 -184
149 -111 241 -257 274 -432 13 -71 5 -224 -16 -305 -23 -90 -73 -201 -122
-272 -37 -56 -145 -166 -203 -209 -47 -36 -176 -116 -190 -119 -5 -1 -30 -11
-55 -22 -80 -36 -200 -73 -291 -89 -74 -14 -89 -20 -85 -33 3 -9 19 -69 36
-133 36 -138 47 -171 57 -165 5 3 33 8 63 11 99 12 244 36 305 52 33 9 68 18
78 20 10 2 27 6 37 9 10 3 27 8 38 10 41 8 191 58 292 98 513 202 950 546
1200 947 141 225 239 497 269 745 9 77 7 394 -2 445 -3 14 -8 45 -11 69 -8 57
-32 147 -63 241 -89 267 -256 487 -488 642 -91 61 -282 133 -405 153 -47 7
-286 16 -292 10z"/>
<path d="M3848 4285 c-1 -2 -32 -6 -67 -9 -35 -4 -67 -9 -71 -11 -3 -2 -17 -6
-31 -9 -53 -11 -66 -15 -130 -39 -82 -31 -139 -60 -209 -106 -76 -50 -84 -56
-171 -141 -256 -249 -412 -637 -433 -1080 l-4 -80 42 -1 c280 -5 543 -98 712
-253 195 -177 259 -417 188 -701 -16 -64 -92 -235 -105 -235 -4 0 -11 -9 -14
-21 -11 -33 -173 -189 -250 -241 -121 -81 -335 -169 -465 -192 -81 -14 -100
-20 -100 -31 0 -18 68 -283 75 -296 4 -5 9 -8 13 -5 4 2 34 7 67 10 33 4 67 9
75 11 8 2 33 6 55 10 363 51 801 218 1125 429 227 148 458 361 604 559 106
144 224 368 274 522 32 98 68 254 80 344 19 156 4 484 -29 596 -4 17 -10 41
-13 55 -14 80 -94 273 -159 380 -77 129 -216 273 -351 365 -94 64 -293 140
-416 160 -47 7 -286 16 -292 10z"/>
</g>
</svg>
